Coordinates
version=1
nRows=18
nColumns=63
inDegrees=yes

Units are S.I. units (second, meters, Newtons, ...)
If the header above contains a line with 'inDegrees', this indicates whether rotational values are in degrees (yes) or radians (no).

endheader
time	pelvis_tilt	pelvis_list	pelvis_rotation	pelvis_tx	pelvis_ty	pelvis_tz	hip_flexion_r	hip_adduction_r	hip_rotation_r	knee_angle_r	knee_angle_r_beta	ankle_angle_r	subtalar_angle_r	mtp_angle_r	hip_flexion_l	hip_adduction_l	hip_rotation_l	knee_angle_l	knee_angle_l_beta	ankle_angle_l	subtalar_angle_l	mtp_angle_l	L5_S1_Flex_Ext	L5_S1_Lat_Bending	L5_S1_axial_rotation	L4_L5_Flex_Ext	L4_L5_Lat_Bending	L4_L5_axial_rotation	L3_L4_Flex_Ext	L3_L4_Lat_Bending	L3_L4_axial_rotation	L2_L3_Flex_Ext	L2_L3_Lat_Bending	L2_L3_axial_rotation	L1_L2_Flex_Ext	L1_L2_Lat_Bending	L1_L2_axial_rotation	L1_T12_Flex_Ext	L1_T12_Lat_Bending	L1_T12_axial_rotation	Abs_r3	Abs_r2	Abs_r1	Abs_t1	Abs_t2	neck_flexion	neck_bending	neck_rotation	arm_flex_r	arm_add_r	arm_rot_r	elbow_flex_r	pro_sup_r	wrist_flex_r	wrist_dev_r	arm_flex_l	arm_add_l	arm_rot_l	elbow_flex_l	pro_sup_l	wrist_flex_l	wrist_dev_l
0.000000	-0.253475	-4.165343	101.126587	0.235679	0.892726	0.628493	1.500883	0.108740	-8.702007	9.785067	0.170782	32.602644	-7.587969	0.000000	-0.783089	-0.929942	8.631619	1.558007	0.027192	29.391723	1.986406	0.000000	0.056275	0.002303	0.000447	0.104508	0.003062	0.000475	0.092454	0.005598	0.000475	0.064317	0.005598	0.000391	0.052257	0.004695	0.000363	0.032155	0.003567	0.000335	0.401966	0.026047	0.002486	0.000000	0.000000	18.743201	0.732522	-0.898091	11.876488	-11.917484	31.225352	74.645964	37.981140	-0.061267	3.468011	17.348282	-7.535165	31.188075	70.549164	60.469171	7.457319	7.361904
0.016949	0.002416	-4.260703	103.157219	0.234186	0.891430	0.630537	1.693514	0.382489	-9.038125	10.058595	0.175556	32.405578	-9.247335	0.000000	-0.021007	-1.105880	9.362630	1.926989	0.033632	30.820923	4.275167	0.000000	0.057317	0.014429	-0.430783	0.106443	0.019190	-0.457707	0.094165	0.035082	-0.457707	0.065507	0.035082	-0.376935	0.053224	0.029423	-0.350011	0.032751	0.022350	-0.323088	0.409406	0.163218	-2.395888	0.000000	0.000000	19.710639	1.379624	-0.838647	13.147405	-11.853569	34.994263	72.478437	44.521005	0.337914	1.184605	17.247540	-7.405952	31.593486	69.149510	58.365359	5.617012	6.597086
0.033898	0.239290	-4.347834	104.852631	0.232901	0.890366	0.632175	1.873026	0.616023	-9.459258	10.284284	0.179495	32.347277	-10.424814	0.000000	0.640799	-1.279806	9.812768	2.270822	0.039633	32.009882	6.306287	0.000000	0.058500	0.028192	-0.785529	0.108640	0.037496	-0.834624	0.096109	0.068547	-0.834624	0.066859	0.068547	-0.687338	0.054323	0.057490	-0.638242	0.033427	0.043670	-0.589147	0.417858	0.318918	-4.368876	0.000000	0.000000	20.613449	1.840573	-0.862115	14.110890	-11.777370	37.982782	70.673482	50.676784	0.551757	-0.712850	17.125844	-7.266810	32.037483	67.914670	56.721422	3.992693	5.851936
0.050847	0.456087	-4.426176	106.231849	0.231818	0.889518	0.633440	2.038224	0.811902	-9.941160	10.465422	0.182656	32.407512	-11.175466	0.000000	1.205888	-1.449416	10.011530	2.587474	0.045160	32.975793	8.086496	0.000000	0.059762	0.043141	-1.069743	0.110985	0.057378	-1.136601	0.098183	0.104893	-1.136601	0.068302	0.104893	-0.936025	0.055495	0.087973	-0.869166	0.034148	0.066825	-0.802307	0.426876	0.488020	-5.949587	0.000000	0.000000	21.448438	2.137555	-0.951708	14.803057	-11.691451	40.267829	69.202800	56.421127	0.596082	-2.260332	16.984027	-7.122972	32.499871	66.845489	55.504797	2.577970	5.137548
0.067797	0.651748	-4.495170	107.313903	0.230934	0.888867	0.634369	2.187913	0.972683	-10.459581	10.605297	0.185097	32.566052	-11.554349	0.000000	1.677821	-1.612407	9.988416	2.874911	0.050177	33.735850	9.622526	0.000000	0.061042	0.058821	-1.289377	0.113361	0.078232	-1.369963	0.100286	0.143018	-1.369963	0.069765	0.143018	-1.128205	0.056684	0.119948	-1.047619	0.034879	0.091114	-0.967033	0.436018	0.665396	-7.171129	0.000000	0.000000	22.212412	2.292757	-1.090640	15.260019	-11.598379	41.926324	68.038090	61.726687	0.486710	-3.493823	16.822924	-6.979668	32.960459	65.942814	54.682918	1.366446	4.465016
0.084746	0.825215	-4.554258	108.117821	0.230245	0.888393	0.634996	2.320899	1.100922	-10.990277	10.707197	0.186876	32.802667	-11.616523	0.000000	2.060155	-1.766478	9.772925	3.131101	0.054648	34.307246	10.921109	0.000000	0.062277	0.074779	-1.450386	0.115655	0.099457	-1.541035	0.102315	0.181819	-1.541035	0.071177	0.181819	-1.269088	0.057831	0.152490	-1.178439	0.035585	0.115833	-1.087789	0.444840	0.845920	-8.066611	0.000000	0.000000	22.902177	2.328364	-1.262126	15.517888	-11.500720	43.035188	67.151049	66.566112	0.239462	-4.449302	16.643370	-6.842131	33.399052	65.207490	54.223223	0.351729	3.845435
0.101695	0.975427	-4.602881	108.662630	0.229746	0.888079	0.635359	2.435988	1.199177	-11.508999	10.774410	0.188049	33.097128	-11.417047	0.000000	2.356449	-1.909324	9.394555	3.354012	0.058539	34.707175	11.988976	0.000000	0.063405	0.090563	-1.558721	0.117750	0.120449	-1.656142	0.104169	0.220194	-1.656142	0.072466	0.220194	-1.363881	0.058878	0.184676	-1.266461	0.036230	0.140282	-1.169041	0.452898	1.024464	-8.669141	0.000000	0.000000	23.514539	2.266563	-1.449379	15.612777	-11.401038	43.671342	66.513377	70.912055	-0.129844	-5.162750	16.446199	-6.715592	33.795457	64.640362	54.093146	-0.472577	3.289898
0.118644	1.101327	-4.640479	108.967359	0.229434	0.887906	0.635490	2.531985	1.270005	-11.991501	10.810224	0.188674	33.429204	-11.010980	0.000000	2.570264	-2.038643	8.882805	3.541610	0.061813	34.952830	12.832858	0.000000	0.064364	0.105718	-1.620337	0.119531	0.140605	-1.721608	0.105744	0.257043	-1.721608	0.073562	0.257043	-1.417795	0.059769	0.215580	-1.316524	0.036778	0.163757	-1.215253	0.459749	1.195903	-9.011828	0.000000	0.000000	24.046303	2.129540	-1.635614	15.580800	-11.301899	43.911705	66.096774	74.737165	-0.605385	-5.670147	16.232246	-6.605283	34.129482	64.242276	54.260125	-1.112866	2.809500
0.135593	1.201854	-4.666493	109.051036	0.229304	0.887856	0.635427	2.607695	1.315964	-12.413534	10.817927	0.188808	33.778666	-10.453382	0.000000	2.705157	-2.152132	8.267174	3.691862	0.064435	35.061405	13.459487	0.000000	0.065093	0.119792	-1.641185	0.120883	0.159323	-1.743759	0.106941	0.291262	-1.743759	0.074394	0.291262	-1.436037	0.060445	0.244279	-1.333463	0.037194	0.185557	-1.230889	0.464950	1.355108	-9.127780	0.000000	0.000000	24.494276	1.939481	-1.804044	15.458069	-11.205871	43.833199	65.872938	78.014093	-1.171342	-6.007473	16.002345	-6.516435	34.380932	64.014079	54.691594	-1.575532	2.415335
0.152542	1.275949	-4.680364	108.932690	0.229352	0.887910	0.635205	2.661925	1.339611	-12.750853	10.800807	0.188510	34.125284	-9.799312	0.000000	2.764688	-2.247488	7.577160	3.802737	0.066370	35.050095	13.875595	0.000000	0.065527	0.132331	-1.627219	0.121691	0.176000	-1.728920	0.107655	0.321749	-1.728920	0.074891	0.321749	-1.423817	0.060849	0.269849	-1.322116	0.037442	0.204980	-1.220414	0.468056	1.496953	-9.050104	0.000000	0.000000	24.855263	1.718571	-1.937882	15.280697	-11.115517	43.512743	65.813568	80.715490	-1.811895	-6.210708	15.757331	-6.454281	34.529616	63.956615	55.354989	-1.866970	2.118496
0.169492	1.322553	-4.681534	108.631349	0.229574	0.888050	0.634858	2.693479	1.343503	-12.979210	10.762153	0.187835	34.448827	-9.103829	0.000000	2.752416	-2.322408	6.842263	3.872200	0.067583	34.936091	14.087912	0.000000	0.065607	0.142882	-1.584392	0.121839	0.190033	-1.683416	0.107786	0.347404	-1.683416	0.074982	0.347404	-1.386343	0.060923	0.291365	-1.287318	0.037488	0.221324	-1.188294	0.468625	1.616311	-8.811911	0.000000	0.000000	25.126072	1.488998	-2.020344	15.084797	-11.033404	43.027258	65.890363	82.814007	-2.511223	-6.315833	15.498038	-6.424051	34.555339	64.070732	56.217746	-1.993574	1.930077
0.186441	1.331985	-4.655992	108.106062	0.230049	0.888244	0.634442	2.684608	1.339631	-12.891234	10.694015	0.186646	34.673617	-8.597717	0.000000	2.637802	-2.363615	6.110835	3.856323	0.067306	34.776092	14.035533	0.000000	0.066136	0.150611	-1.534031	0.122821	0.200313	-1.629908	0.108654	0.366197	-1.629908	0.075587	0.366197	-1.342278	0.061414	0.307127	-1.246401	0.037790	0.233297	-1.150524	0.472401	1.703747	-8.531823	0.000000	0.000000	25.277381	1.366035	-1.813132	15.085255	-10.904417	42.781139	65.912475	84.483076	-3.262040	-6.414565	15.134634	-6.425482	34.162833	64.430174	57.320253	-1.978259	2.014946
0.203390	1.307462	-4.612814	107.527333	0.230637	0.888492	0.634036	2.638379	1.318825	-12.733189	10.611718	0.185209	34.822534	-8.180117	0.000000	2.467996	-2.380526	5.533689	3.808959	0.066479	34.530682	13.781646	0.000000	0.064899	0.153307	-1.480200	0.120523	0.203898	-1.572713	0.106622	0.372750	-1.572713	0.074173	0.372750	-1.295175	0.060265	0.312623	-1.202663	0.037083	0.237472	-1.110150	0.463564	1.734234	-8.232430	0.000000	0.000000	25.287585	1.325188	-1.564646	15.129931	-10.792744	42.455516	66.067277	84.921199	-3.944494	-6.361580	14.806297	-6.501115	33.618025	64.996452	58.499738	-1.693269	2.334476
0.220339	1.237718	-4.551644	106.765651	0.231466	0.888772	0.633636	2.570784	1.278106	-12.284632	10.536257	0.183892	34.867460	-7.961592	0.000000	2.221287	-2.355930	4.947277	3.707742	0.064712	34.222320	13.349122	0.000000	0.061589	0.150717	-1.401330	0.114377	0.200454	-1.488913	0.101185	0.366454	-1.488913	0.070390	0.366454	-1.226164	0.057192	0.307342	-1.138581	0.035192	0.233461	-1.050997	0.439924	1.704942	-7.793777	0.000000	0.000000	25.163865	1.350729	-1.244162	15.281522	-10.744173	42.263791	66.305177	84.092171	-4.653487	-6.425277	14.504230	-6.645403	32.944673	65.746916	59.691761	-1.253780	2.742274
0.237288	1.129268	-4.486331	105.916256	0.232446	0.889051	0.633290	2.487231	1.215645	-11.665619	10.460869	0.182577	34.807233	-7.874053	0.000000	1.936422	-2.293434	4.435348	3.568412	0.062281	33.869559	12.761529	0.000000	0.057486	0.143033	-1.315205	0.106757	0.190234	-1.397405	0.094443	0.347771	-1.397405	0.065700	0.347771	-1.150804	0.053381	0.291673	-1.068604	0.032847	0.221558	-0.986404	0.410614	1.618019	-7.314774	0.000000	0.000000	24.956019	1.435387	-0.874449	15.560694	-10.749794	42.255848	66.573837	82.337657	-5.379046	-6.660200	14.219902	-6.859836	32.130039	66.648799	60.934912	-0.601228	3.208147
0.254237	0.999043	-4.417899	104.974365	0.233560	0.889300	0.633000	2.393921	1.144272	-10.917152	10.389392	0.181329	34.648998	-7.878418	0.000000	1.626380	-2.208283	3.801034	3.402729	0.059389	33.556083	12.250325	0.000000	0.053039	0.132972	-1.220468	0.098499	0.176853	-1.296747	0.087138	0.323308	-1.296747	0.060618	0.323308	-1.067909	0.049252	0.271157	-0.991630	0.030307	0.205974	-0.915351	0.378854	1.504206	-6.787875	0.000000	0.000000	24.690588	1.539608	-0.454110	15.985069	-10.827546	42.504209	66.829648	79.952839	-6.262304	-7.196270	13.942302	-7.121504	31.184605	67.665435	62.256585	0.183091	3.685259
0.271186	0.846140	-4.356643	103.958417	0.234800	0.889494	0.632752	2.301292	1.063144	-9.989151	10.327363	0.180246	34.370814	-8.048364	0.000000	1.300573	-2.094872	3.261956	3.201181	0.055871	33.231974	11.537998	0.000000	0.049888	0.119597	-1.113716	0.092646	0.159064	-1.183323	0.081960	0.290788	-1.183323	0.057017	0.290788	-0.974501	0.046326	0.243882	-0.904894	0.028506	0.185256	-0.835287	0.356342	1.352905	-6.194153	0.000000	0.000000	24.391098	1.664533	-0.044247	16.450642	-10.928686	42.739720	67.071686	77.884906	-7.231280	-7.888481	13.698018	-7.432172	30.213962	68.738852	63.578882	1.012672	4.165195
0.288136	0.674763	-4.298331	102.917743	0.236097	0.889622	0.632551	2.206259	0.971644	-8.945712	10.272829	0.179295	34.002850	-8.353216	0.000000	0.965032	-1.955290	2.881434	2.967889	0.051799	32.912748	10.620159	0.000000	0.047344	0.103819	-1.007904	0.087923	0.138079	-1.070898	0.077782	0.252426	-1.070898	0.054110	0.252426	-0.881916	0.043964	0.211708	-0.818922	0.027053	0.160816	-0.755928	0.338176	1.174423	-5.605661	0.000000	0.000000	24.085444	1.823445	0.400116	16.957239	-11.021949	42.947000	67.270023	76.133166	-8.149919	-8.689550	13.459325	-7.795074	29.229349	69.868059	64.919242	1.767968	4.611639
